<?xml version="1.0" encoding="UTF-8"?>
<svg version="1.1" xmlns="http://www.w3.org/2000/svg" width="225" height="225">
<path d="M0 0 C74.25 0 148.5 0 225 0 C225 74.25 225 148.5 225 225 C150.75 225 76.5 225 0 225 C0 150.75 0 76.5 0 0 Z " fill="#FDFDFD" transform="translate(0,0)"/>
<path d="M0 0 C3.3052853 1.3083421 4.55147823 2.02876488 6.0390625 5.25 C7.02985741 8.08544559 7.72201606 10.88175445 8.375 13.8125 C9.63277584 19.05000762 11.49821557 23.25523642 14 28 C14 28.99 14 29.98 14 31 C6.19784987 24.52587542 2.42618224 15.92262134 -2 7 C-2.99 7 -3.98 7 -5 7 C-7.39894206 11.96186345 -8.38278356 15.58059975 -8.3984375 21.18359375 C-8.40130768 21.84279312 -8.40417786 22.50199249 -8.40713501 23.1811676 C-8.40916194 24.56520454 -8.40372874 25.94927103 -8.39111328 27.33325195 C-8.37506346 29.42921312 -8.39099316 31.52323904 -8.41015625 33.61914062 C-8.46866745 43.71460914 -8.46866745 43.71460914 -5 53 C-2.056354 55.49356811 -2.056354 55.49356811 1.4375 57.25 C9.02838814 61.42973818 9.02838814 61.42973818 12 65 C12.3125 67.6875 12.3125 67.6875 12 70 C10.26043342 71.73956658 7.8063378 71.37190386 5.4375 71.5625 C4.42558594 71.64628906 3.41367188 71.73007813 2.37109375 71.81640625 C1.58863281 71.87699219 0.80617188 71.93757813 0 72 C0.35191406 72.45246094 0.70382813 72.90492187 1.06640625 73.37109375 C4.76336768 78.47734074 7.36178893 83.76111358 9.75 89.5625 C10.04334229 90.27011475 10.33668457 90.97772949 10.63891602 91.70678711 C13.9014989 99.84769923 15.35404625 107.65437556 16.125 116.375 C16.25455078 117.69757813 16.25455078 117.69757813 16.38671875 119.046875 C16.9409114 125.0462304 17.10214098 130.976925 17 137 C15.35 136.34 13.7 135.68 12 135 C11.75474253 142.18740629 12.40679533 148.8804334 13.75 155.9375 C13.93191895 156.90389404 14.11383789 157.87028809 14.30126953 158.8659668 C16.87339191 172.00953432 21.37650956 181.71814602 30 192 C23.97403427 193.0712828 18.11090483 193.09945415 12 193 C10.038284 187.05715448 9.3937719 181.28351062 8.875 175.0625 C8.78863281 174.09248047 8.70226562 173.12246094 8.61328125 172.12304688 C8.40278881 169.74915989 8.19852115 167.37491294 8 165 C7.97081126 168.70831663 7.95313782 172.41660342 7.9375 176.125 C7.92493164 177.69507813 7.92493164 177.69507813 7.91210938 179.296875 C7.89883239 183.49240194 7.89641726 187.41453234 8.62890625 191.5546875 C9 194 9 194 7 197 C3.875 197.6875 3.875 197.6875 1 198 C1 197.01 1 196.02 1 195 C0.38125 195.515625 -0.2375 196.03125 -0.875 196.5625 C-5.51697279 198.69780749 -8.9849156 197.73554571 -14 197 C-12.02 191.39 -10.04 185.78 -8 180 C-9.93241047 184.89035869 -9.93241047 184.89035869 -11.85913086 189.78295898 C-13.88888889 194.88888889 -13.88888889 194.88888889 -15 196 C-16.41570123 196.08651611 -17.835595 196.10704904 -19.25390625 196.09765625 C-20.10791016 196.09443359 -20.96191406 196.09121094 -21.84179688 196.08789062 C-22.73962891 196.07951172 -23.63746094 196.07113281 -24.5625 196.0625 C-25.46419922 196.05798828 -26.36589844 196.05347656 -27.29492188 196.04882812 C-29.52997589 196.03700244 -31.76499602 196.01906638 -34 196 C-32.02 193.36 -30.04 190.72 -28 188 C-29.4375 190 -29.4375 190 -32 192 C-34.23008864 192.17963386 -36.37541557 192.05668603 -38.609375 191.953125 C-42.5851036 192.03108046 -45.42972898 193.27861933 -49 195 C-49.33 195.99 -49.66 196.98 -50 198 C-51.65 198.33 -53.3 198.66 -55 199 C-55.66 198.01 -56.32 197.02 -57 196 C-60.10811287 195.19458793 -60.10811287 195.19458793 -63.625 194.8125 C-64.81351563 194.65394531 -66.00203125 194.49539062 -67.2265625 194.33203125 C-68.14179687 194.22246094 -69.05703125 194.11289063 -70 194 C-70 193.34 -70 192.68 -70 192 C-69.29875 191.319375 -68.5975 190.63875 -67.875 189.9375 C-63.78611417 185.90719419 -59.46722268 181.47969987 -58.67602539 175.5871582 C-58.83271232 166.64451845 -59.59876276 157.77880846 -60.48925781 148.88378906 C-60.7480258 146.26994165 -60.98769639 143.65479385 -61.2265625 141.0390625 C-62.14109876 131.52860392 -63.5929831 122.52955179 -66.1796875 113.32519531 C-67.23548562 109.04544223 -67.31268424 105.37757939 -67 101 C-68.65 100.67 -70.3 100.34 -72 100 C-73.60461448 95.98846379 -72.45438973 92.92685226 -71 89 C-69.515 88.01 -69.515 88.01 -68 87 C-66.44921875 88.17578125 -66.44921875 88.17578125 -65 90 C-65.14453125 92.48046875 -65.14453125 92.48046875 -65.8125 95.1875 C-66.02519531 96.08855469 -66.23789063 96.98960938 -66.45703125 97.91796875 C-66.72580078 98.94857422 -66.72580078 98.94857422 -67 100 C-66.01 100 -65.02 100 -64 100 C-65.54545466 84.44915376 -65.54545466 84.44915376 -71 70 C-68.525 69.505 -68.525 69.505 -66 69 C-61.62298571 77.18601909 -59.90079429 84.79038673 -59 94 C-58.67 92.68 -58.34 91.36 -58 90 C-56.68 90 -55.36 90 -54 90 C-49.25316977 87.91584485 -47.49903419 85.0013087 -45 80.5625 C-42.45339609 76.04946606 -40.25213762 73.00454863 -36 70 C-34.875 71.75 -34.875 71.75 -34 74 C-34.65758116 75.33783753 -35.32563747 76.67054244 -36 78 C-36.44811137 80.35564596 -36.44811137 80.35564596 -36.625 82.75 C-36.69976562 83.54921875 -36.77453125 84.3484375 -36.8515625 85.171875 C-36.90054688 85.77515625 -36.94953125 86.3784375 -37 87 C-36.34 85.02 -35.68 83.04 -35 81 C-34.67 81 -34.34 81 -34 81 C-33.72288474 83.22595848 -33.47933071 85.45611221 -33.25 87.6875 C-33.11078125 88.92886719 -32.9715625 90.17023438 -32.828125 91.44921875 C-33.03109995 95.64249675 -34.1017367 97.06241918 -37 100 C-34.525 99.01 -34.525 99.01 -32 98 C-31.81548975 112.78132118 -31.81548975 112.78132118 -33 119 C-31.68 119.66 -30.36 120.32 -29 121 C-28.505 119.02 -28.505 119.02 -28 117 C-26.14976031 120.1477749 -25.77732798 122.36136578 -25.875 125.9921875 C-25.89046875 126.94480469 -25.9059375 127.89742188 -25.921875 128.87890625 C-25.97375476 130.8684949 -26.02583649 132.8580783 -26.078125 134.84765625 C-26.16150229 139.99620391 -26.09172737 144.17922208 -24 149 C-23.01 149 -22.02 149 -21 149 C-21.495 148.649375 -21.99 148.29875 -22.5 147.9375 C-24.76982201 145.00564656 -24.3264586 142.59104465 -24 139 C-23.34 138.34 -22.68 137.68 -22 137 C-21.34 138.65 -20.68 140.3 -20 142 C-19.98541748 141.38479492 -19.97083496 140.76958984 -19.95581055 140.13574219 C-19.88119423 137.33987146 -19.7845802 134.54517713 -19.6875 131.75 C-19.66494141 130.78191406 -19.64238281 129.81382812 -19.61914062 128.81640625 C-19.58369141 127.88183594 -19.54824219 126.94726562 -19.51171875 125.984375 C-19.48553467 125.12553711 -19.45935059 124.26669922 -19.43237305 123.38183594 C-18.92183096 120.56938615 -17.85629865 119.1350676 -16 117 C-16 118.65 -16 120.3 -16 122 C-14.68 121.01 -13.36 120.02 -12 119 C-12.2475 117.453125 -12.2475 117.453125 -12.5 115.875 C-13.3027475 109.61130822 -13.07965938 103.30194211 -13 97 C-12.01 97.99 -12.01 97.99 -11 99 C-8.93125966 99.6425235 -8.93125966 99.6425235 -7 100 C-7 99.34 -7 98.68 -7 98 C-8.485 97.505 -8.485 97.505 -10 97 C-11.14819277 91.1314592 -10.77313045 85.9114744 -10 80 C-8.10786631 82.38573379 -6.97608217 84.07175348 -6 87 C-5.94577053 85.5629191 -5.90710277 84.12524538 -5.875 82.6875 C-5.85179687 81.88699219 -5.82859375 81.08648437 -5.8046875 80.26171875 C-5.84182678 77.71611424 -5.84182678 77.71611424 -8 75 C-7.625 73 -7.625 73 -7 71 C-6.66781808 67.99740483 -6.66781808 67.99740483 -8.5 66.3125 C-9.2425 65.6628125 -9.2425 65.6628125 -10 65 C-9.505 63.515 -9.505 63.515 -9 62 C-9.639375 61.731875 -10.27875 61.46375 -10.9375 61.1875 C-13 60 -13 60 -14 57 C-15.65 57 -17.3 57 -19 57 C-18.73323796 58.98491642 -18.73323796 58.98491642 -18 61 C-17.01 61.33 -16.02 61.66 -15 62 C-14.505 66.455 -14.505 66.455 -14 71 C-14.886875 70.319375 -15.77375 69.63875 -16.6875 68.9375 C-19.74815807 66.74389377 -19.74815807 66.74389377 -22.6875 67.125 C-25.21916233 67.98407951 -25.21916233 67.98407951 -28 70 C-27.88637738 68.5199159 -27.75877092 67.04089926 -27.625 65.5625 C-27.52058594 64.32693359 -27.52058594 64.32693359 -27.4140625 63.06640625 C-27.27742188 62.38449219 -27.14078125 61.70257813 -27 61 C-26.34 60.67 -25.68 60.34 -25 60 C-25 59.01 -25 58.02 -25 57 C-26.65 57 -28.3 57 -30 57 C-31.44524884 61.42605006 -31.44524884 61.42605006 -32 66 C-38.76147648 65.32385235 -43.8563843 62.74989037 -49.0625 58.5 C-51 56 -51 56 -51.25 53.875 C-48.91396793 50.37095189 -44.82951342 49.62889524 -41 48.3125 C-37.99720313 47.84331299 -35.03185038 47.94169519 -32 48 C-31.75890503 47.02752319 -31.75890503 47.02752319 -31.51293945 46.03540039 C-29.58830501 38.6027617 -27.05275283 31.55497932 -24.1875 24.4375 C-23.77435547 23.37853516 -23.36121094 22.31957031 -22.93554688 21.22851562 C-13.87934175 -1.41897424 -13.87934175 -1.41897424 0 0 Z " fill="#040404" transform="translate(136,14)"/>
<path d="M0 0 C0.33 0 0.66 0 1 0 C1.27817508 7.82422612 0.44535746 15.27496805 -0.75 23 C-0.92974365 24.17884766 -1.1094873 25.35769531 -1.29467773 26.57226562 C-2.39139422 33.58132003 -3.58344017 40.56091379 -5.0625 47.5 C-5.21235352 48.22832031 -5.36220703 48.95664063 -5.51660156 49.70703125 C-6.35663623 53.41253748 -7.19644274 55.47150694 -10 58 C-10.50934629 53.7093897 -11.00575364 49.41737379 -11.5 45.125 C-11.64308594 43.92101562 -11.78617187 42.71703125 -11.93359375 41.4765625 C-12.33186424 37.98695438 -12.68424286 34.49799301 -13 31 C-13.08677002 30.06873291 -13.17354004 29.13746582 -13.26293945 28.17797852 C-13.59752458 21.71657484 -11.8730899 17.91088819 -8.1875 12.6875 C-7.73568359 12.01138672 -7.28386719 11.33527344 -6.81835938 10.63867188 C-5.94835132 9.336835 -5.06970401 8.04071625 -4.18115234 6.75146484 C-3.14260577 5.21146214 -2.18344147 3.61854953 -1.23828125 2.01953125 C-0.62533203 1.01986328 -0.62533203 1.01986328 0 0 Z " fill="#F3F3F3" transform="translate(92,121)"/>
<path d="M0 0 C2.27751344 1.47368516 4.02007 3.11435238 6 5 C5.61679443 7.68243901 4.92847619 9.09801411 3.3125 11.3125 C1 13 1 13 -2.1875 12.875 C-3.115625 12.58625 -4.04375 12.2975 -5 12 C-5.33 11.34 -5.66 10.68 -6 10 C-5.195625 9.236875 -4.39125 8.47375 -3.5625 7.6875 C-0.83200976 5.20569102 -0.83200976 5.20569102 0 2 C-2.64 2.33 -5.28 2.66 -8 3 C-8 2.34 -8 1.68 -8 1 C-5.09704195 -0.45147903 -3.22738221 -0.37239025 0 0 Z " fill="#F0F0F0" transform="translate(134,136)"/>
<path d="M0 0 C0.66 0 1.32 0 2 0 C1.979375 1.11375 1.95875 2.2275 1.9375 3.375 C1.73619282 6.83215921 1.73619282 6.83215921 3 9 C3.33 6.36 3.66 3.72 4 1 C4.33 1 4.66 1 5 1 C5.41599768 3.93592608 5.8084144 6.87178274 6.1875 9.8125 C6.30802734 10.64587891 6.42855469 11.47925781 6.55273438 12.33789062 C6.65263672 13.14033203 6.75253906 13.94277344 6.85546875 14.76953125 C6.95496826 15.50792236 7.05446777 16.24631348 7.15698242 17.00708008 C7 19 7 19 5.6340332 20.7644043 C4 22 4 22 2 22 C-1.65989848 4.97969543 -1.65989848 4.97969543 0 0 Z " fill="#D9D9D9" transform="translate(118,114)"/>
<path d="M0 0 C0.33 0 0.66 0 1 0 C1.33 4.29 1.66 8.58 2 13 C3.49743119 11.50256881 3.33202693 10.01175761 3.5625 7.9375 C3.706875 6.638125 3.85125 5.33875 4 4 C6.28259205 7.42388808 6.16215534 8.20194505 5.6875 12.125 C5.58824219 13.01445313 5.48898438 13.90390625 5.38671875 14.8203125 C5 17 5 17 4 18 C3.63239269 20.32817964 3.29758419 22.6618385 3 25 C1.68 24.67 0.36 24.34 -1 24 C-1.79953138 20.71303767 -2.09658936 19.28976808 -1 16 C-0.77202438 13.26710707 -0.58331813 10.54957796 -0.4375 7.8125 C-0.39431641 7.06291016 -0.35113281 6.31332031 -0.30664062 5.54101562 C-0.20077315 3.69421625 -0.0999024 1.84713166 0 0 Z " fill="#D3D3D3" transform="translate(104,110)"/>
<path d="M0 0 C1.32 0.99 2.64 1.98 4 3 C3.34 6.63 2.68 10.26 2 14 C0.35 13.67 -1.3 13.34 -3 13 C-4.60372657 8.99068358 -3.38691773 5.94176618 -2 2 C-1.34 1.34 -0.68 0.68 0 0 Z " fill="#0B0B0B" transform="translate(67,101)"/>
<path d="M0 0 C1.58158962 3.00887781 2.43945339 5.63672037 3 9 C3.66 8.67 4.32 8.34 5 8 C5.28875 8.969375 5.5775 9.93875 5.875 10.9375 C6.64214682 14.10664203 6.64214682 14.10664203 9 15 C9 15.66 9 16.32 9 17 C7.35 16.67 5.7 16.34 4 16 C4 15.34 4 14.68 4 14 C3.34 14 2.68 14 2 14 C-0.3992233 9.35150485 -0.19957409 5.08913926 0 0 Z " fill="#959595" transform="translate(120,97)"/>
<path d="M0 0 C0.66 0 1.32 0 2 0 C1.979375 1.11375 1.95875 2.2275 1.9375 3.375 C1.73619282 6.83215921 1.73619282 6.83215921 3 9 C3.039992 10.99960012 3.04346799 13.00047242 3 15 C1.03100667 13.34858624 0.09329518 12.36784958 -0.546875 9.84375 C-0.64742188 8.68359375 -0.64742188 8.68359375 -0.75 7.5 C-0.82734375 6.7265625 -0.9046875 5.953125 -0.984375 5.15625 C-1 3 -1 3 0 0 Z " fill="#1C1C1C" transform="translate(118,114)"/>
<path d="M0 0 C2.25055832 3.37583748 2.20667458 4.18359359 1.8125 8.0625 C1.73644531 8.94035156 1.66039063 9.81820312 1.58203125 10.72265625 C1 13 1 13 -2 15 C-2.04254356 13.00045254 -2.04080783 10.99958364 -2 9 C-1.67 8.67 -1.34 8.34 -1 8 C-0.76924918 6.65252916 -0.58846937 5.29622435 -0.4375 3.9375 C-0.293125 2.638125 -0.14875 1.33875 0 0 Z " fill="#0F0F0F" transform="translate(108,114)"/>
<path d="M0 0 C2.02558881 3.34939881 2.21738987 5.86962551 2.125 9.75 C2.10695313 10.73484375 2.08890625 11.7196875 2.0703125 12.734375 C2.04710938 13.48203125 2.02390625 14.2296875 2 15 C1.01 15 0.02 15 -1 15 C-0.91621094 14.30132812 -0.83242187 13.60265625 -0.74609375 12.8828125 C-0.64425781 11.97273438 -0.54242188 11.06265625 -0.4375 10.125 C-0.33308594 9.22007813 -0.22867188 8.31515625 -0.12109375 7.3828125 C0.19674852 4.98346943 0.19674852 4.98346943 -1 3 C-0.67 2.01 -0.34 1.02 0 0 Z " fill="#C8C8C8" transform="translate(70,99)"/>
<path d="M0 0 C0 0.99 0 1.98 0 3 C-2.64 3 -5.28 3 -8 3 C-8 2.34 -8 1.68 -8 1 C-5.29120665 -0.35439668 -2.99066732 -0.06501451 0 0 Z " fill="#B0B0B0" transform="translate(134,136)"/>
<path d="M0 0 C2 3 2 3 2 7 C1.34 7 0.68 7 0 7 C-0.33 7.66 -0.66 8.32 -1 9 C-1.125 2.25 -1.125 2.25 0 0 Z " fill="#303030" transform="translate(113,151)"/>
<path d="M0 0 C2.0625 0.4375 2.0625 0.4375 4 1 C3.34 1 2.68 1 2 1 C1.34 2.32 0.68 3.64 0 5 C-0.99 5 -1.98 5 -3 5 C-1.125 1.125 -1.125 1.125 0 0 Z " fill="#E9E9E9" transform="translate(102,109)"/>
</svg>
